<svg width="22" height="33" viewBox="0 0 22 33" fill="none" xmlns="http://www.w3.org/2000/svg">
<g clip-path="url(#clip0_301_8386)">
<path d="M1.19531 19.6953L1.19531 14.7969L3.9375 14.7969L3.9375 20.1992C3.9375 20.8711 4.08984 21.4063 4.39453 21.8047C4.69922 22.2031 5.10547 22.4023 5.61328 22.4023C5.96484 22.4023 6.27734 22.3047 6.55078 22.1094C6.81641 21.9063 7.03516 21.6367 7.20703 21.3008C7.37891 20.957 7.53906 20.5664 7.6875 20.1289C7.82813 19.6836 7.97266 19.2188 8.12109 18.7344C8.26172 18.25 8.41797 17.7656 8.58984 17.2813C8.75391 16.7969 8.96484 16.3359 9.22266 15.8984C9.48047 15.4531 9.77734 15.0625 10.1133 14.7266C10.4492 14.3828 10.8789 14.1133 11.4023 13.918C11.9258 13.7148 12.5156 13.6133 13.1719 13.6133C13.8516 13.6133 14.4805 13.7344 15.0586 13.9766C15.6367 14.2188 16.1484 14.5742 16.5938 15.043C17.0313 15.5039 17.375 16.1016 17.625 16.8359C17.875 17.5625 18 18.3867 18 19.3086L18 24.8516L15.2695 24.8516L15.2695 19.1914C15.2695 18.3398 15.082 17.6758 14.707 17.1992C14.332 16.7148 13.8203 16.4727 13.1719 16.4727C12.7969 16.4727 12.4688 16.5742 12.1875 16.7773C11.9063 16.9727 11.6797 17.2383 11.5078 17.5742C11.3281 17.9102 11.168 18.2969 11.0273 18.7344C10.8789 19.1719 10.7383 19.6328 10.6055 20.1172C10.4727 20.6016 10.3281 21.0859 10.1719 21.5703C10.0078 22.0547 9.80469 22.5156 9.5625 22.9531C9.3125 23.3906 9.02734 23.7773 8.70703 24.1133C8.37891 24.4492 7.96484 24.7188 7.46484 24.9219C6.95703 25.1172 6.37891 25.2148 5.73047 25.2148C4.38672 25.2148 3.29688 24.707 2.46094 23.6914C1.61719 22.668 1.19531 21.3359 1.19531 19.6953Z" fill="#BEC4E2"/>
<path d="M1.19531 17.2891L1.19531 12.3906L3.9375 12.3906L3.9375 17.793C3.9375 18.4648 4.08984 19 4.39453 19.3984C4.69922 19.7969 5.10547 19.9961 5.61328 19.9961C5.96484 19.9961 6.27734 19.8984 6.55078 19.7031C6.81641 19.5 7.03516 19.2305 7.20703 18.8945C7.37891 18.5508 7.53906 18.1602 7.6875 17.7227C7.82813 17.2773 7.97266 16.8125 8.12109 16.3281C8.26172 15.8438 8.41797 15.3594 8.58984 14.875C8.75391 14.3906 8.96484 13.9297 9.22266 13.4922C9.48047 13.0469 9.77734 12.6563 10.1133 12.3203C10.4492 11.9766 10.8789 11.707 11.4023 11.5117C11.9258 11.3086 12.5156 11.207 13.1719 11.207C13.8516 11.207 14.4805 11.3281 15.0586 11.5703C15.6367 11.8125 16.1484 12.168 16.5938 12.6367C17.0313 13.0977 17.375 13.6953 17.625 14.4297C17.875 15.1563 18 15.9805 18 16.9023L18 22.4453L15.2695 22.4453L15.2695 16.7852C15.2695 15.9336 15.082 15.2695 14.707 14.793C14.332 14.3086 13.8203 14.0664 13.1719 14.0664C12.7969 14.0664 12.4688 14.168 12.1875 14.3711C11.9063 14.5664 11.6797 14.832 11.5078 15.168C11.3281 15.5039 11.168 15.8906 11.0273 16.3281C10.8789 16.7656 10.7383 17.2266 10.6055 17.7109C10.4727 18.1953 10.3281 18.6797 10.1719 19.1641C10.0078 19.6484 9.80469 20.1094 9.5625 20.5469C9.3125 20.9844 9.02734 21.3711 8.70703 21.707C8.37891 22.043 7.96484 22.3125 7.46484 22.5156C6.95703 22.7109 6.37891 22.8086 5.73047 22.8086C4.38672 22.8086 3.29688 22.3008 2.46094 21.2852C1.61719 20.2617 1.19531 18.9297 1.19531 17.2891Z" fill="#8192E4"/>
<path d="M1.19531 14.8828L1.19531 9.98438L3.9375 9.98438L3.9375 15.3867C3.9375 16.0586 4.08984 16.5938 4.39453 16.9922C4.69922 17.3906 5.10547 17.5898 5.61328 17.5898C5.96484 17.5898 6.27734 17.4922 6.55078 17.2969C6.81641 17.0938 7.03516 16.8242 7.20703 16.4883C7.37891 16.1445 7.53906 15.7539 7.6875 15.3164C7.82813 14.8711 7.97266 14.4063 8.12109 13.9219C8.26172 13.4375 8.41797 12.9531 8.58984 12.4688C8.75391 11.9844 8.96484 11.5234 9.22266 11.0859C9.48047 10.6406 9.77734 10.25 10.1133 9.91406C10.4492 9.57031 10.8789 9.30078 11.4023 9.10547C11.9258 8.90234 12.5156 8.80078 13.1719 8.80078C13.8516 8.80078 14.4805 8.92188 15.0586 9.16406C15.6367 9.40625 16.1484 9.76172 16.5938 10.2305C17.0313 10.6914 17.375 11.2891 17.625 12.0234C17.875 12.75 18 13.5742 18 14.4961L18 20.0391L15.2695 20.0391L15.2695 14.3789C15.2695 13.5273 15.082 12.8633 14.707 12.3867C14.332 11.9023 13.8203 11.6602 13.1719 11.6602C12.7969 11.6602 12.4688 11.7617 12.1875 11.9648C11.9063 12.1602 11.6797 12.4258 11.5078 12.7617C11.3281 13.0977 11.168 13.4844 11.0273 13.9219C10.8789 14.3594 10.7383 14.8203 10.6055 15.3047C10.4727 15.7891 10.3281 16.2734 10.1719 16.7578C10.0078 17.2422 9.80469 17.7031 9.5625 18.1406C9.3125 18.5781 9.02734 18.9648 8.70703 19.3008C8.37891 19.6367 7.96484 19.9063 7.46484 20.1094C6.95703 20.3047 6.37891 20.4023 5.73047 20.4023C4.38672 20.4023 3.29688 19.8945 2.46094 18.8789C1.61719 17.8555 1.19531 16.5234 1.19531 14.8828Z" fill="#1634CF"/>
</g>
<defs>
<clipPath id="clip0_301_8386">
<rect width="179" height="33" fill="white"/>
</clipPath>
</defs>
</svg>
