<svg width="248" height="312" viewBox="0 0 248 312" fill="none" xmlns="http://www.w3.org/2000/svg">
<g clip-path="url(#clip0_4326_28840)">
<path d="M247.252 178.958C247.252 162.55 247.252 125.013 247.252 125.013V121.862L245.005 119.653L213.796 88.9204L210.845 86.0079V85.92L208.586 83.7105L128.667 5.19738L123.369 0L118.096 5.20994L2.23462 119.653L0 121.862V189.629L2.23462 191.839L81.6767 270.339L84.6395 273.264V273.34L86.8867 275.549L118.096 306.281L123.381 311.479L128.667 306.281L244.993 191.839L247.277 189.591V178.933H247.24L247.252 178.958Z" fill="black"/>
<path d="M125.263 235.916L101.323 211.925L178.706 134.718C180.953 132.508 181.267 129.998 181.267 128.692C181.267 127.386 180.928 124.875 178.756 122.754L177.224 121.26C174.663 118.762 170.759 118.197 167.608 119.816L98.3096 165.237L97.8702 165.488C81.3741 174.941 60.4716 172.142 47.0262 158.709C30.7185 142.401 30.593 115.736 46.7501 99.2777L46.8505 99.1773L123.744 22.0828L147.747 46.0234L70.8915 123.068C67.7404 126.319 67.7781 131.542 70.9794 134.756C73.5404 137.317 77.4824 137.919 80.6711 136.275L149.97 90.854L150.409 90.6029C166.679 81.2878 187.418 83.9116 200.851 96.9929L202.383 98.4868C210.581 106.471 215.113 117.167 215.15 128.617C215.188 140.053 210.719 150.787 202.571 158.809L125.263 235.941V235.916Z" fill="white"/>
</g>
<defs>
<clipPath id="clip0_4326_28840">
<rect width="247.277" height="311.491" fill="white"/>
</clipPath>
</defs>
</svg>
