<svg width="279" height="352" viewBox="0 0 279 352" fill="none" xmlns="http://www.w3.org/2000/svg">
<g clip-path="url(#clip0_4326_28845)">
<path d="M141.023 266.212L114.071 239.202L201.19 152.281C203.72 149.794 204.073 146.967 204.073 145.497C204.073 144.027 203.692 141.2 201.246 138.812L199.522 137.13C196.639 134.317 192.243 133.681 188.696 135.505L110.679 186.64L110.184 186.922C91.6123 197.565 68.0799 194.413 52.9429 179.29C34.5834 160.931 34.4421 130.911 52.632 112.382L52.745 112.269L139.313 25.4747L166.336 52.4275L79.8108 139.165C76.2633 142.826 76.3057 148.705 79.9097 152.323C82.793 155.207 87.2309 155.885 90.8209 154.034L168.838 102.898L169.333 102.616C187.65 92.1286 210.999 95.0826 226.121 109.81L227.846 111.492C237.075 120.481 242.177 132.522 242.22 145.412C242.262 158.288 237.23 170.372 228.058 179.403L141.023 266.24V266.212Z" fill="white"/>
<path d="M278.361 202.088C278.361 183.615 278.361 141.356 278.361 141.356V137.808L275.831 135.321L240.695 100.722L237.373 97.4426V97.3437L234.829 94.8561L144.855 6.46482L138.891 0.613525L132.954 6.47896L2.51577 135.321L0 137.808V214.101L2.51577 216.589L91.953 304.966L95.2885 308.259V308.344L97.8184 310.831L132.954 345.43L138.905 351.281L144.855 345.43L275.817 216.589L278.389 214.059V202.059H278.346L278.361 202.088ZM138.919 339.409L103.783 304.81L97.9315 298.959L8.48014 210.568V141.356L138.919 12.514L228.893 100.891L234.744 106.742L269.88 141.341V210.554L138.919 339.395V339.409Z" fill="white"/>
</g>
<defs>
<clipPath id="clip0_4326_28845">
<rect width="278.389" height="350.682" fill="white" transform="translate(0 0.613525)"/>
</clipPath>
</defs>
</svg>
