<svg width="1126" height="241" viewBox="0 0 1126 241" fill="none" xmlns="http://www.w3.org/2000/svg">
<path d="M518.789 191.704H504V230.605H509.333V214.878H518.789C525.551 214.878 530.609 209.877 530.609 203.263C530.609 196.65 525.551 191.704 518.789 191.704ZM518.789 209.765H509.333V196.817H518.789C522.472 196.817 525.331 199.596 525.331 203.263C525.331 206.931 522.472 209.765 518.789 209.765Z" fill="black"/>
<path d="M546.266 202.93C538.46 202.93 532.412 209.099 532.412 217.101C532.412 225.048 538.46 231.161 546.266 231.161C554.018 231.161 560.12 225.048 560.12 217.101C560.12 209.099 554.018 202.93 546.266 202.93ZM546.266 207.82C551.269 207.82 555.172 211.822 555.172 217.101C555.172 222.269 551.269 226.271 546.266 226.271C541.208 226.271 537.36 222.269 537.36 217.101C537.36 211.822 541.208 207.82 546.266 207.82Z" fill="black"/>
<path d="M571.749 230.605H575.762L582.799 211.155L589.781 230.605H593.85L603.635 203.486H598.193L591.815 222.881L584.889 203.486H580.655L573.838 222.881L567.406 203.486H562.018L571.749 230.605Z" fill="black"/>
<path d="M632.034 215.878C632.034 208.598 626.426 202.93 619.224 202.93C611.528 202.93 605.535 209.099 605.535 216.934C605.535 225.048 611.638 231.161 619.279 231.161C624.777 231.161 629.285 228.882 631.319 225.215L627.251 222.547C625.876 224.992 622.853 226.493 619.444 226.493C614.606 226.493 611.143 223.381 610.538 218.435H631.924C631.979 217.768 632.034 216.49 632.034 215.878ZM610.703 214.1C611.638 210.043 614.826 207.598 619.004 207.598C623.238 207.598 626.316 210.321 626.811 214.1H610.703Z" fill="black"/>
<path d="M649.77 202.93C647.186 202.93 644.218 204.708 642.733 207.431V203.486H637.62V230.605H642.733V212.544C644.328 209.488 647.241 207.709 649.44 207.709C650.43 207.709 651.584 207.876 652.464 208.209L652.739 203.375C651.969 203.152 650.98 202.93 649.77 202.93Z" fill="black"/>
<path d="M680.407 215.878C680.407 208.598 674.799 202.93 667.597 202.93C659.901 202.93 653.908 209.099 653.908 216.934C653.908 225.048 660.01 231.161 667.652 231.161C673.15 231.161 677.658 228.882 679.692 225.215L675.624 222.547C674.249 224.992 671.226 226.493 667.817 226.493C662.979 226.493 659.516 223.381 658.911 218.435H680.297C680.352 217.768 680.407 216.49 680.407 215.878ZM659.076 214.1C660.01 210.043 663.199 207.598 667.377 207.598C671.611 207.598 674.689 210.321 675.184 214.1H659.076Z" fill="black"/>
<path d="M706.019 191.704V207.431C704.59 204.875 700.851 202.93 697.058 202.93C689.636 202.93 683.973 209.099 683.973 217.045C683.973 224.992 689.636 231.161 697.058 231.161C700.796 231.161 704.535 229.216 706.019 226.66V230.605H711.132V191.704H706.019ZM698.047 226.326C692.879 226.326 688.921 222.325 688.921 217.045C688.921 211.71 692.879 207.765 698.047 207.765C701.346 207.765 704.59 209.654 706.019 212.322V221.825C704.59 224.437 701.346 226.326 698.047 226.326Z" fill="black"/>
<path d="M744.897 202.93C741.158 202.93 737.365 204.875 735.936 207.431V191.704H730.823V230.605H735.936V226.66C737.42 229.216 741.158 231.161 744.897 231.161C752.319 231.161 757.981 224.992 757.981 217.045C757.981 209.099 752.319 202.93 744.897 202.93ZM743.907 226.326C740.609 226.326 737.365 224.437 735.936 221.825V212.322C737.365 209.654 740.609 207.765 743.907 207.765C749.075 207.765 753.033 211.71 753.033 217.045C753.033 222.325 749.075 226.326 743.907 226.326Z" fill="black"/>
<path d="M780.87 203.486L772.843 223.714L764.872 203.486H759.429L770.259 229.661L765.531 240.497H770.974L786.312 203.486H780.87Z" fill="black"/>
<path d="M823.148 203.43V207.098C821.719 204.653 818.145 202.874 814.572 202.874C807.315 202.874 801.652 209.099 801.652 216.99C801.652 224.937 807.315 231.161 814.572 231.161C818.145 231.161 821.719 229.383 823.148 226.937V230.605H829.251V203.43H823.148ZM815.836 225.27C811.218 225.27 807.7 221.714 807.7 216.99C807.7 212.266 811.218 208.765 815.836 208.765C818.915 208.765 821.829 210.488 823.148 212.878V221.213C821.829 223.548 818.86 225.27 815.836 225.27Z" fill="black"/>
<path d="M850.401 202.874C846.828 202.874 843.254 204.653 841.825 207.042V203.43H835.723V240.164H841.825V226.937C843.254 229.383 846.828 231.161 850.401 231.161C857.658 231.161 863.321 224.937 863.321 217.045C863.321 209.099 857.658 202.874 850.401 202.874ZM849.137 225.27C846.058 225.27 843.145 223.548 841.825 221.158V212.822C843.145 210.488 846.113 208.765 849.137 208.765C853.755 208.765 857.274 212.266 857.274 217.045C857.274 221.769 853.755 225.27 849.137 225.27Z" fill="black"/>
<path d="M883.097 202.874C879.524 202.874 875.95 204.653 874.521 207.042V203.43H868.419V240.164H874.521V226.937C875.95 229.383 879.524 231.161 883.097 231.161C890.354 231.161 896.017 224.937 896.017 217.045C896.017 209.099 890.354 202.874 883.097 202.874ZM881.833 225.27C878.754 225.27 875.84 223.548 874.521 221.158V212.822C875.84 210.488 878.809 208.765 881.833 208.765C886.451 208.765 889.969 212.266 889.969 217.045C889.969 221.769 886.451 225.27 881.833 225.27Z" fill="black"/>
<path d="M915.976 224.881C915.427 225.048 914.547 225.215 913.887 225.215C911.193 225.215 908.994 223.325 908.994 220.158V209.321H916.031V203.43H908.994V196.15H902.892V203.43H897.724V209.321H902.892V220.435C902.892 227.16 907.07 230.994 913.008 230.994C914.162 230.994 915.427 230.772 916.306 230.327L915.976 224.881Z" fill="black"/>
<path d="M945.144 215.823C945.144 208.543 939.481 202.874 932.224 202.874C924.472 202.874 918.37 208.987 918.37 216.879C918.37 224.992 924.582 231.161 932.334 231.161C937.887 231.161 942.395 228.938 944.374 225.27L939.481 222.103C938.217 224.214 935.468 225.548 932.444 225.548C928.266 225.548 925.407 223.103 924.582 219.046H944.924C945.089 218.268 945.144 216.545 945.144 215.823ZM924.692 213.767C925.627 210.377 928.266 208.487 931.894 208.487C935.578 208.487 938.217 210.71 938.711 213.767H924.692Z" fill="black"/>
<path d="M964.588 202.874C961.179 202.874 957.991 204.486 956.342 207.098V203.43H950.239V230.605H956.342V212.822C957.716 210.488 960.355 209.043 963.104 209.043C966.897 209.043 969.426 211.71 969.426 216.101V230.605H975.583V215.1C975.583 207.598 971.295 202.874 964.588 202.874Z" fill="black"/>
<path d="M991.973 231.217C998.131 231.217 1002.47 227.66 1002.47 222.769C1002.47 212.711 987.41 215.545 987.41 210.932C987.41 209.154 988.895 208.043 991.149 208.043C993.403 208.043 997.251 209.043 999.395 210.932L1001.81 206.153C999.395 203.93 995.492 202.874 991.753 202.874C985.596 202.874 981.308 206.376 981.308 211.433C981.308 221.491 996.261 217.99 996.261 222.992C996.261 224.715 994.502 225.993 991.808 225.993C988.784 225.993 984.826 224.603 982.737 222.603L980.318 227.271C982.957 229.661 987.63 231.217 991.973 231.217Z" fill="black"/>
<path d="M1010.55 190.815C1008.41 190.815 1006.65 192.649 1006.65 194.761C1006.65 196.984 1008.41 198.762 1010.55 198.762C1012.69 198.762 1014.51 196.984 1014.51 194.761C1014.51 192.649 1012.69 190.815 1010.55 190.815ZM1007.47 203.43V230.605H1013.57V203.43H1007.47Z" fill="black"/>
<path d="M1032.57 202.874C1024.71 202.874 1018.66 208.987 1018.66 217.045C1018.66 225.104 1024.71 231.161 1032.57 231.161C1040.43 231.161 1046.53 225.104 1046.53 217.045C1046.53 208.987 1040.43 202.874 1032.57 202.874ZM1032.57 208.821C1037.02 208.821 1040.48 212.377 1040.48 217.045C1040.48 221.658 1037.02 225.215 1032.57 225.215C1028.12 225.215 1024.71 221.658 1024.71 217.045C1024.71 212.377 1028.12 208.821 1032.57 208.821Z" fill="black"/>
<path d="M1066 202.874C1062.6 202.874 1059.41 204.486 1057.76 207.098V203.43H1051.66V230.605H1057.76V212.822C1059.13 210.488 1061.77 209.043 1064.52 209.043C1068.31 209.043 1070.84 211.71 1070.84 216.101V230.605H1077V215.1C1077 207.598 1072.71 202.874 1066 202.874Z" fill="black"/>
<path d="M168.649 133.066C168.649 121.874 168.649 96.2708 168.649 96.2708V94.1214L167.116 92.6143L145.829 71.652L143.816 69.6654V69.6054L142.275 68.0984L87.7626 14.5451L84.149 11L80.5525 14.5537L1.52422 92.6143L0 94.1214V140.345L1.52422 141.852L55.7111 195.396L57.732 197.392V197.443L59.2648 198.95L80.5525 219.912L84.1575 223.458L87.7626 219.912L167.108 141.852L168.666 140.319V133.049H168.641L168.649 133.066Z" fill="black"/>
<path d="M85.4411 171.917L69.1114 155.553L121.894 102.89C123.427 101.383 123.641 99.6704 123.641 98.7799C123.641 97.8893 123.41 96.1767 121.928 94.7296L120.884 93.7106C119.137 92.0065 116.474 91.6212 114.324 92.7258L67.0563 123.707L66.7566 123.878C55.5047 130.326 41.2473 128.417 32.0763 119.254C20.9529 108.131 20.8672 89.9428 31.8879 78.7167L31.9564 78.6482L84.405 26.0626L100.778 42.3923L48.3546 94.9436C46.2053 97.1615 46.231 100.724 48.4145 102.916C50.1614 104.663 52.8502 105.074 55.0252 103.952L102.293 72.9709L102.593 72.7996C113.691 66.4458 127.837 68.2355 136.999 77.1582L138.044 78.1772C143.636 83.6233 146.727 90.919 146.752 98.7285C146.778 106.529 143.73 113.851 138.172 119.323L85.4411 171.934V171.917Z" fill="white"/>
<path d="M226.672 68.84H250.907V82.3832H224.177C217.525 82.3832 213.248 85.7096 213.248 90.6992C213.248 107.212 256.729 97.5896 256.729 128.121C256.729 141.427 247.225 152 228.573 152H201.13V138.457H229.167C237.602 138.457 242.591 134.536 242.591 128.121C242.591 110.658 199.348 121.231 199.348 91.2932C199.348 77.9876 210.397 68.84 226.672 68.84ZM312.293 93.9068H325.479V152H312.293V144.159C309.204 149.386 301.482 153.188 293.76 153.188C278.078 153.188 265.842 139.882 265.842 122.894C265.842 106.024 278.078 92.7188 293.76 92.7188C301.482 92.7188 309.204 96.5204 312.293 101.748V93.9068ZM296.492 140.595C303.026 140.595 309.441 136.912 312.293 131.923V114.103C309.441 108.994 303.145 105.312 296.492 105.312C286.513 105.312 278.91 112.796 278.91 122.894C278.91 132.992 286.513 140.595 296.492 140.595ZM382.946 93.9068H396.133V152H382.946V144.159C379.857 149.386 372.135 153.188 364.413 153.188C348.732 153.188 336.495 139.882 336.495 122.894C336.495 106.024 348.732 92.7188 364.413 92.7188C372.135 92.7188 379.857 96.5204 382.946 101.748V93.9068ZM367.146 140.595C373.68 140.595 380.095 136.912 382.946 131.923V114.103C380.095 108.994 373.799 105.312 367.146 105.312C357.167 105.312 349.563 112.796 349.563 122.894C349.563 132.992 357.167 140.595 367.146 140.595ZM434.34 68.84H458.575V82.3832H431.845C425.192 82.3832 420.916 85.7096 420.916 90.6992C420.916 107.212 464.396 97.5896 464.396 128.121C464.396 141.427 454.892 152 436.241 152H408.798V138.457H436.835C445.27 138.457 450.259 134.536 450.259 128.121C450.259 110.658 407.016 121.231 407.016 91.2932C407.016 77.9876 418.064 68.84 434.34 68.84ZM503.757 152V68.84H533.933C547.832 68.84 558.881 78.5816 558.881 90.3428C558.881 98.54 553.416 106.143 546.288 108.044C555.792 109.588 562.92 118.023 562.92 128.596C562.92 141.783 551.515 152 537.615 152H503.757ZM517.657 103.292H533.576C539.873 103.292 544.862 98.54 544.862 92.4812C544.862 86.66 539.754 82.1456 533.576 82.1456H517.657V103.292ZM517.657 138.694H536.665C543.555 138.694 548.783 133.348 548.783 126.696C548.783 119.924 543.437 114.578 536.784 114.578H517.657V138.694ZM600.903 92.7188C617.892 92.7188 631.078 105.787 631.078 123.013C631.078 140.239 617.892 153.188 600.903 153.188C583.915 153.188 570.847 140.239 570.847 123.013C570.847 105.787 583.915 92.7188 600.903 92.7188ZM600.903 105.43C591.28 105.43 583.915 113.034 583.915 123.013C583.915 132.873 591.28 140.476 600.903 140.476C610.526 140.476 618.01 132.873 618.01 123.013C618.01 113.034 610.526 105.43 600.903 105.43ZM648.803 66.9392C653.436 66.9392 657.356 70.8596 657.356 75.374C657.356 80.126 653.436 83.9276 648.803 83.9276C644.17 83.9276 640.368 80.126 640.368 75.374C640.368 70.8596 644.17 66.9392 648.803 66.9392ZM642.15 93.9068H655.337V152H642.15V93.9068ZM683.181 68.84V139.407H692.328V152H669.994V68.84H683.181ZM755.856 120.399C755.856 121.944 755.737 125.626 755.38 127.29H711.424C713.206 135.962 719.384 141.189 728.413 141.189C734.947 141.189 740.887 138.338 743.619 133.824L754.192 140.595C749.916 148.436 740.174 153.188 728.175 153.188C711.424 153.188 698 140.001 698 122.656C698 105.787 711.187 92.7188 727.938 92.7188C743.619 92.7188 755.856 104.836 755.856 120.399ZM711.662 116.004H741.956C740.887 109.47 735.184 104.718 727.225 104.718C719.384 104.718 713.682 108.757 711.662 116.004ZM800.131 93.9068V106.5H780.054V152H766.867V93.9068H800.131ZM841.396 92.7188C857.078 92.7188 869.314 106.024 869.314 123.013C869.314 139.882 857.078 153.188 841.396 153.188C833.674 153.188 825.952 149.386 822.863 144.159V172.434H809.677V93.9068H822.863V101.629C825.952 96.5204 833.674 92.7188 841.396 92.7188ZM838.664 140.595C848.643 140.595 856.246 133.111 856.246 123.013C856.246 112.796 848.643 105.312 838.664 105.312C832.13 105.312 825.715 108.994 822.863 113.984V131.804C825.715 136.912 832.011 140.595 838.664 140.595ZM893.517 68.84V139.407H902.665V152H880.33V68.84H893.517ZM954.787 93.9068H967.974V152H954.787V144.159C951.698 149.386 943.976 153.188 936.254 153.188C920.573 153.188 908.336 139.882 908.336 122.894C908.336 106.024 920.573 92.7188 936.254 92.7188C943.976 92.7188 951.698 96.5204 954.787 101.748V93.9068ZM938.987 140.595C945.521 140.595 951.936 136.912 954.787 131.923V114.103C951.936 108.994 945.639 105.312 938.987 105.312C929.007 105.312 921.404 112.796 921.404 122.894C921.404 132.992 929.007 140.595 938.987 140.595ZM1016.06 93.9068V106.5H1002.99V152H989.801V106.5H976.733V93.9068H989.801V78.4628H1002.99V93.9068H1016.06ZM1076.87 120.399C1076.87 121.944 1076.75 125.626 1076.4 127.29H1032.44C1034.22 135.962 1040.4 141.189 1049.43 141.189C1055.96 141.189 1061.9 138.338 1064.63 133.824L1075.21 140.595C1070.93 148.436 1061.19 153.188 1049.19 153.188C1032.44 153.188 1019.02 140.001 1019.02 122.656C1019.02 105.787 1032.2 92.7188 1048.95 92.7188C1064.63 92.7188 1076.87 104.836 1076.87 120.399ZM1032.68 116.004H1062.97C1061.9 109.47 1056.2 104.718 1048.24 104.718C1040.4 104.718 1034.7 108.757 1032.68 116.004Z" fill="#111111"/>
</svg>
