<svg width="164" height="28" viewBox="0 0 164 28" fill="none" xmlns="http://www.w3.org/2000/svg">
<path fill-rule="evenodd" clip-rule="evenodd" d="M14.0819 0L16.1402 9.05953L24.0392 4.10051L19.0512 11.9536L28.1637 14L19.0512 16.0464L24.0392 23.8995L16.1402 18.9405L14.0819 28L12.0235 18.9405L4.12448 23.8995L9.1125 16.0464L0 14L9.1125 11.9536L4.12448 4.10051L12.0235 9.05953L14.0819 0Z" fill="#0080FF"/>
<path d="M38.9183 11.0741H41.0941C41.0514 8.97767 39.2535 7.49319 36.5963 7.49319C33.9756 7.49319 32.0071 8.95949 32.0132 11.1529C32.0132 12.9343 33.2869 13.9583 35.3408 14.4854L36.7608 14.849C38.1077 15.1883 38.9975 15.6064 39.0036 16.5698C38.9975 17.6301 37.9859 18.339 36.511 18.339C35.097 18.339 34 17.7089 33.9086 16.4062H31.6841C31.7755 18.8722 33.6222 20.2598 36.5293 20.2598C39.5217 20.2598 41.2586 18.7753 41.2647 16.5879C41.2586 14.4369 39.4729 13.4554 37.5958 13.0131L36.4256 12.7222C35.4018 12.4798 34.2926 12.0496 34.3047 11.0135C34.3108 10.0804 35.1519 9.39575 36.5658 9.39575C37.9127 9.39575 38.8025 10.0198 38.9183 11.0741Z" fill="#0080FF"/>
<path d="M45.8768 20.2598C47.3456 20.2598 48.2232 19.5751 48.6254 18.7935H48.6986V20.0719H50.8195V13.8432C50.8195 11.3831 48.8022 10.6439 47.0165 10.6439C45.0479 10.6439 43.5365 11.5164 43.0489 13.213L45.1089 13.5038C45.3283 12.8676 45.9499 12.3223 47.0286 12.3223C48.0525 12.3223 48.6132 12.8434 48.6132 13.7583V13.7947C48.6132 14.4248 47.9489 14.4551 46.2973 14.6308C44.4811 14.8247 42.7442 15.364 42.7442 17.4604C42.7442 19.2903 44.0911 20.2598 45.8768 20.2598ZM46.4497 18.648C45.5294 18.648 44.8712 18.23 44.8712 17.4241C44.8712 16.5819 45.6086 16.2304 46.5959 16.0911C47.1749 16.0123 48.3329 15.8669 48.6193 15.6367V16.7334C48.6193 17.7695 47.7783 18.648 46.4497 18.648Z" fill="#0080FF"/>
<path d="M55.7317 20.2598C57.2005 20.2598 58.0781 19.5751 58.4803 18.7935H58.5534V20.0719H60.6744V13.8432C60.6744 11.3831 58.6571 10.6439 56.8714 10.6439C54.9028 10.6439 53.3914 11.5164 52.9038 13.213L54.9638 13.5038C55.1832 12.8676 55.8048 12.3223 56.8835 12.3223C57.9074 12.3223 58.4681 12.8434 58.4681 13.7583V13.7947C58.4681 14.4248 57.8038 14.4551 56.1522 14.6308C54.336 14.8247 52.5991 15.364 52.5991 17.4604C52.5991 19.2903 53.946 20.2598 55.7317 20.2598ZM56.3046 18.648C55.3843 18.648 54.7261 18.23 54.7261 17.4241C54.7261 16.5819 55.4635 16.2304 56.4508 16.0911C57.0298 16.0123 58.1878 15.8669 58.4742 15.6367V16.7334C58.4742 17.7695 57.6332 18.648 56.3046 18.648Z" fill="#0080FF"/>
<path d="M70.2916 13.2251C69.9868 11.6497 68.7192 10.6439 66.5251 10.6439C64.2701 10.6439 62.7343 11.7467 62.7404 13.4675C62.7343 14.8247 63.5754 15.7215 65.3733 16.0911L66.97 16.4243C67.8294 16.6122 68.2316 16.9575 68.2316 17.4847C68.2316 18.1209 67.5368 18.5996 66.4886 18.5996C65.4769 18.5996 64.8186 18.1633 64.6297 17.3271L62.4783 17.5332C62.7526 19.2418 64.197 20.2537 66.4947 20.2537C68.835 20.2537 70.4866 19.0479 70.4927 17.2847C70.4866 15.9578 69.6273 15.1459 67.8598 14.7641L66.2631 14.4248C65.3123 14.2128 64.9344 13.8856 64.9405 13.3463C64.9344 12.7162 65.6353 12.2799 66.5556 12.2799C67.5734 12.2799 68.1097 12.8313 68.2804 13.4432L70.2916 13.2251Z" fill="#0080FF"/>
<path d="M76.6665 20.0719H81.7188C84.5772 20.0719 85.9789 18.6238 85.9789 16.6909C85.9789 14.8126 84.6381 13.7098 83.3095 13.6432V13.522C84.5284 13.2372 85.4914 12.389 85.4914 10.8802C85.4914 9.0322 84.1506 7.66284 81.4446 7.66284H76.6665V20.0719ZM78.9275 18.1936V14.5581H81.4202C82.8159 14.5581 83.6813 15.4064 83.6813 16.5152C83.6813 17.5029 82.9987 18.1936 81.3593 18.1936H78.9275ZM78.9275 12.9403V9.51693H81.213C82.5416 9.51693 83.2303 10.2137 83.2303 11.1711C83.2303 12.2617 82.3405 12.9403 81.1642 12.9403H78.9275Z" fill="#0080FF"/>
<path d="M91.9318 20.2537C94.6744 20.2537 96.4174 18.333 96.4174 15.4549C96.4174 12.5707 94.6744 10.6439 91.9318 10.6439C89.1893 10.6439 87.4462 12.5707 87.4462 15.4549C87.4462 18.333 89.1893 20.2537 91.9318 20.2537ZM91.944 18.4966C90.4264 18.4966 89.6829 17.1514 89.6829 15.4488C89.6829 13.7462 90.4264 12.3829 91.944 12.3829C93.4372 12.3829 94.1807 13.7462 94.1807 15.4488C94.1807 17.1514 93.4372 18.4966 91.944 18.4966Z" fill="#0080FF"/>
<path d="M98.2899 20.0719H100.496V10.7651H98.2899V20.0719ZM99.3992 9.44423C100.1 9.44423 100.673 8.91102 100.673 8.25664C100.673 7.59619 100.1 7.06299 99.3992 7.06299C98.6922 7.06299 98.1193 7.59619 98.1193 8.25664C98.1193 8.91102 98.6922 9.44423 99.3992 9.44423Z" fill="#0080FF"/>
<path d="M104.971 7.66284H102.765V20.0719H104.971V7.66284Z" fill="#0080FF"/>
<path d="M111.384 20.2537C113.566 20.2537 115.065 19.1934 115.455 17.5756L113.395 17.3453C113.097 18.133 112.365 18.545 111.415 18.545C109.988 18.545 109.044 17.6119 109.026 16.0184H115.547V15.3458C115.547 12.0799 113.572 10.6439 111.268 10.6439C108.587 10.6439 106.838 12.601 106.838 15.4731C106.838 18.3936 108.562 20.2537 111.384 20.2537ZM109.032 14.54C109.099 13.3524 109.982 12.3526 111.299 12.3526C112.566 12.3526 113.42 13.2736 113.432 14.54H109.032Z" fill="#0080FF"/>
<path d="M117.413 20.0719H119.619V14.6005C119.619 13.419 120.515 12.5829 121.728 12.5829C122.1 12.5829 122.563 12.6495 122.752 12.7101V10.6924C122.551 10.656 122.203 10.6318 121.96 10.6318C120.887 10.6318 119.991 11.2377 119.65 12.3163H119.552V10.7651H117.413V20.0719Z" fill="#0080FF"/>
<path d="M124.218 23.562H126.424V18.6056H126.515C126.863 19.2842 127.588 20.2355 129.197 20.2355C131.403 20.2355 133.055 18.4966 133.055 15.4306C133.055 12.3284 131.354 10.6439 129.191 10.6439C127.539 10.6439 126.851 11.6316 126.515 12.3041H126.387V10.7651H124.218V23.562ZM126.381 15.4185C126.381 13.6129 127.161 12.4435 128.581 12.4435C130.05 12.4435 130.806 13.6856 130.806 15.4185C130.806 17.1636 130.038 18.436 128.581 18.436C127.174 18.436 126.381 17.2241 126.381 15.4185Z" fill="#0080FF"/>
<path d="M137.15 7.66284H134.944V20.0719H137.15V7.66284Z" fill="#0080FF"/>
<path d="M142.113 20.2598C143.582 20.2598 144.459 19.5751 144.861 18.7935H144.935V20.0719H147.056V13.8432C147.056 11.3831 145.038 10.6439 143.253 10.6439C141.284 10.6439 139.773 11.5164 139.285 13.213L141.345 13.5038C141.564 12.8676 142.186 12.3223 143.265 12.3223C144.289 12.3223 144.849 12.8434 144.849 13.7583V13.7947C144.849 14.4248 144.185 14.4551 142.533 14.6308C140.717 14.8247 138.98 15.364 138.98 17.4604C138.98 19.2903 140.327 20.2598 142.113 20.2598ZM142.686 18.648C141.765 18.648 141.107 18.23 141.107 17.4241C141.107 16.5819 141.845 16.2304 142.832 16.0911C143.411 16.0123 144.569 15.8669 144.855 15.6367V16.7334C144.855 17.7695 144.014 18.648 142.686 18.648Z" fill="#0080FF"/>
<path d="M153.948 10.7651H152.102V8.53536H149.896V10.7651H148.567V12.4617H149.896V17.6362C149.883 19.3873 151.163 20.2476 152.821 20.1992C153.449 20.181 153.881 20.0598 154.119 19.981L153.747 18.2663C153.625 18.2966 153.376 18.3511 153.101 18.3511C152.547 18.3511 152.102 18.1572 152.102 17.2726V12.4617H153.948V10.7651Z" fill="#0080FF"/>
<path d="M159.837 20.2537C162.019 20.2537 163.518 19.1934 163.908 17.5756L161.849 17.3453C161.55 18.133 160.819 18.545 159.868 18.545C158.442 18.545 157.497 17.6119 157.479 16.0184H164V15.3458C164 12.0799 162.025 10.6439 159.722 10.6439C157.04 10.6439 155.291 12.601 155.291 15.4731C155.291 18.3936 157.016 20.2537 159.837 20.2537ZM157.485 14.54C157.552 13.3524 158.436 12.3526 159.752 12.3526C161.02 12.3526 161.873 13.2736 161.885 14.54H157.485Z" fill="#0080FF"/>
</svg>
