<svg width="179" height="33" viewBox="0 0 179 33" fill="none" xmlns="http://www.w3.org/2000/svg">
<g clip-path="url(#clip0_301_8386)">
<path d="M35.2539 8.99609H39.3359V11.2812H34.834C34.2741 11.2812 33.8281 11.4082 33.4961 11.6621C33.1641 11.916 32.998 12.2546 32.998 12.6777C32.998 12.9707 33.0794 13.2311 33.2422 13.459C33.4115 13.6803 33.6361 13.8626 33.916 14.0059C34.2025 14.1491 34.528 14.2826 34.8926 14.4062C35.2637 14.5234 35.651 14.6439 36.0547 14.7676C36.4583 14.8848 36.862 15.015 37.2656 15.1582C37.6693 15.2949 38.0534 15.4707 38.418 15.6855C38.7891 15.9004 39.1146 16.1478 39.3945 16.4277C39.681 16.7077 39.9056 17.0658 40.0684 17.502C40.2376 17.9382 40.3223 18.4297 40.3223 18.9766C40.3223 19.543 40.2214 20.0671 40.0195 20.5488C39.8177 21.0306 39.5215 21.457 39.1309 21.8281C38.7467 22.1927 38.2487 22.4792 37.6367 22.6875C37.0312 22.8958 36.3444 23 35.5762 23H30.957V20.7246H35.6738C36.3835 20.7246 36.9368 20.5684 37.334 20.2559C37.7376 19.9434 37.9395 19.5169 37.9395 18.9766C37.9395 18.6641 37.8548 18.3906 37.6855 18.1562C37.5228 17.9219 37.3014 17.7331 37.0215 17.5898C36.7415 17.4401 36.4193 17.3066 36.0547 17.1895C35.6901 17.0658 35.306 16.9486 34.9023 16.8379C34.4987 16.7272 34.0951 16.6068 33.6914 16.4766C33.2878 16.3398 32.9036 16.1706 32.5391 15.9688C32.1745 15.7604 31.8522 15.5228 31.5723 15.2559C31.2923 14.9824 31.0677 14.6374 30.8984 14.2207C30.7357 13.7975 30.6543 13.3158 30.6543 12.7754C30.6543 11.6556 31.0775 10.7474 31.9238 10.0508C32.7767 9.34766 33.8867 8.99609 35.2539 8.99609ZM49.668 13.2246H51.8945V23H49.668V21.6816C49.4076 22.1243 48.9844 22.4889 48.3984 22.7754C47.819 23.0553 47.2038 23.1953 46.5527 23.1953C45.2376 23.1953 44.1243 22.7038 43.2129 21.7207C42.3079 20.7376 41.8555 19.5299 41.8555 18.0977C41.8555 16.6784 42.3079 15.4772 43.2129 14.4941C44.1243 13.5111 45.2376 13.0195 46.5527 13.0195C47.1973 13.0195 47.8125 13.1628 48.3984 13.4492C48.9844 13.7357 49.4076 14.1003 49.668 14.543V13.2246ZM47.0117 21.0762C47.5586 21.0762 48.0762 20.9395 48.5645 20.666C49.0592 20.3926 49.4271 20.0443 49.668 19.6211V16.623C49.4271 16.1868 49.0625 15.832 48.5742 15.5586C48.0859 15.2786 47.5651 15.1387 47.0117 15.1387C46.1719 15.1387 45.4688 15.4219 44.9023 15.9883C44.3359 16.5482 44.0527 17.2513 44.0527 18.0977C44.0527 18.944 44.3359 19.6536 44.9023 20.2266C45.4688 20.793 46.1719 21.0762 47.0117 21.0762ZM61.5625 13.2246H63.7891V23H61.5625V21.6816C61.3021 22.1243 60.8789 22.4889 60.293 22.7754C59.7135 23.0553 59.0983 23.1953 58.4473 23.1953C57.1322 23.1953 56.0189 22.7038 55.1074 21.7207C54.2025 20.7376 53.75 19.5299 53.75 18.0977C53.75 16.6784 54.2025 15.4772 55.1074 14.4941C56.0189 13.5111 57.1322 13.0195 58.4473 13.0195C59.0918 13.0195 59.707 13.1628 60.293 13.4492C60.8789 13.7357 61.3021 14.1003 61.5625 14.543V13.2246ZM58.9062 21.0762C59.4531 21.0762 59.9707 20.9395 60.459 20.666C60.9538 20.3926 61.3216 20.0443 61.5625 19.6211V16.623C61.3216 16.1868 60.957 15.832 60.4688 15.5586C59.9805 15.2786 59.4596 15.1387 58.9062 15.1387C58.0664 15.1387 57.3633 15.4219 56.7969 15.9883C56.2305 16.5482 55.9473 17.2513 55.9473 18.0977C55.9473 18.944 56.2305 19.6536 56.7969 20.2266C57.3633 20.793 58.0664 21.0762 58.9062 21.0762ZM70.2148 8.99609H74.2969V11.2812H69.7949C69.235 11.2812 68.7891 11.4082 68.457 11.6621C68.125 11.916 67.959 12.2546 67.959 12.6777C67.959 12.9707 68.0404 13.2311 68.2031 13.459C68.3724 13.6803 68.597 13.8626 68.877 14.0059C69.1634 14.1491 69.4889 14.2826 69.8535 14.4062C70.2246 14.5234 70.612 14.6439 71.0156 14.7676C71.4193 14.8848 71.8229 15.015 72.2266 15.1582C72.6302 15.2949 73.0143 15.4707 73.3789 15.6855C73.75 15.9004 74.0755 16.1478 74.3555 16.4277C74.6419 16.7077 74.8665 17.0658 75.0293 17.502C75.1986 17.9382 75.2832 18.4297 75.2832 18.9766C75.2832 19.543 75.1823 20.0671 74.9805 20.5488C74.7786 21.0306 74.4824 21.457 74.0918 21.8281C73.7077 22.1927 73.2096 22.4792 72.5977 22.6875C71.9922 22.8958 71.3053 23 70.5371 23H65.918V20.7246H70.6348C71.3444 20.7246 71.8978 20.5684 72.2949 20.2559C72.6986 19.9434 72.9004 19.5169 72.9004 18.9766C72.9004 18.6641 72.8158 18.3906 72.6465 18.1562C72.4837 17.9219 72.2624 17.7331 71.9824 17.5898C71.7025 17.4401 71.3802 17.3066 71.0156 17.1895C70.651 17.0658 70.2669 16.9486 69.8633 16.8379C69.4596 16.7272 69.056 16.6068 68.6523 16.4766C68.2487 16.3398 67.8646 16.1706 67.5 15.9688C67.1354 15.7604 66.8132 15.5228 66.5332 15.2559C66.2533 14.9824 66.0286 14.6374 65.8594 14.2207C65.6966 13.7975 65.6152 13.3158 65.6152 12.7754C65.6152 11.6556 66.0384 10.7474 66.8848 10.0508C67.7376 9.34766 68.8477 8.99609 70.2148 8.99609ZM81.9043 23V8.99609H86.9824C88.1478 8.99609 89.1374 9.35091 89.9512 10.0605C90.7715 10.7702 91.1816 11.623 91.1816 12.6191C91.1816 13.3092 90.9766 13.9375 90.5664 14.5039C90.1628 15.0703 89.6615 15.4349 89.0625 15.5977C89.8698 15.7279 90.5371 16.1185 91.0645 16.7695C91.5983 17.4206 91.8652 18.1855 91.8652 19.0645C91.8652 20.1647 91.4486 21.0957 90.6152 21.8574C89.7884 22.6191 88.7858 23 87.6074 23H81.9043ZM84.248 14.7969H86.9238C87.4577 14.7969 87.9069 14.6211 88.2715 14.2695C88.6426 13.918 88.8281 13.4883 88.8281 12.9805C88.8281 12.4987 88.6393 12.0885 88.2617 11.75C87.8906 11.4115 87.4447 11.2422 86.9238 11.2422H84.248V14.7969ZM84.248 20.7637H87.4414C88.0208 20.7637 88.5059 20.5684 88.8965 20.1777C89.2871 19.7871 89.4824 19.3086 89.4824 18.7422C89.4824 18.1693 89.2839 17.6875 88.8867 17.2969C88.4961 16.8997 88.0208 16.7012 87.4609 16.7012H84.248V20.7637ZM94.6582 14.4844C95.6283 13.5078 96.8294 13.0195 98.2617 13.0195C99.694 13.0195 100.898 13.5078 101.875 14.4844C102.852 15.4609 103.34 16.6719 103.34 18.1172C103.34 19.5625 102.852 20.7702 101.875 21.7402C100.898 22.7103 99.694 23.1953 98.2617 23.1953C96.8294 23.1953 95.6283 22.7103 94.6582 21.7402C93.6882 20.7702 93.2031 19.5625 93.2031 18.1172C93.2031 16.6719 93.6882 15.4609 94.6582 14.4844ZM100.312 16.0078C99.7591 15.4414 99.0755 15.1582 98.2617 15.1582C97.4479 15.1582 96.7676 15.4414 96.2207 16.0078C95.6738 16.5742 95.4004 17.2773 95.4004 18.1172C95.4004 18.9505 95.6738 19.6504 96.2207 20.2168C96.7741 20.7767 97.4544 21.0566 98.2617 21.0566C99.0755 21.0566 99.7591 20.7734 100.312 20.207C100.866 19.6406 101.143 18.944 101.143 18.1172C101.143 17.2773 100.866 16.5742 100.312 16.0078ZM105.322 9.10352C105.602 8.82357 105.938 8.68359 106.328 8.68359C106.719 8.68359 107.054 8.82357 107.334 9.10352C107.62 9.38346 107.764 9.71549 107.764 10.0996C107.764 10.4967 107.62 10.8353 107.334 11.1152C107.054 11.3952 106.719 11.5352 106.328 11.5352C105.938 11.5352 105.602 11.3952 105.322 11.1152C105.042 10.8353 104.902 10.4967 104.902 10.0996C104.902 9.71549 105.042 9.38346 105.322 9.10352ZM105.205 13.2246H107.422V23H105.205V13.2246ZM112.109 8.99609V20.8809H113.652V23H109.893V8.99609H112.109ZM124.326 17.6777C124.326 18.0553 124.3 18.3776 124.248 18.6445H116.807C116.93 19.4388 117.246 20.0605 117.754 20.5098C118.268 20.959 118.919 21.1836 119.707 21.1836C120.26 21.1836 120.768 21.0729 121.23 20.8516C121.693 20.6237 122.038 20.321 122.266 19.9434L124.043 21.0762C123.678 21.7402 123.109 22.2611 122.334 22.6387C121.566 23.0098 120.677 23.1953 119.668 23.1953C118.737 23.1953 117.884 22.974 117.109 22.5312C116.335 22.082 115.719 21.4635 115.264 20.6758C114.814 19.888 114.59 19.0156 114.59 18.0586C114.59 17.1276 114.811 16.278 115.254 15.5098C115.703 14.735 116.312 14.1263 117.08 13.6836C117.855 13.2409 118.704 13.0195 119.629 13.0195C120.495 13.0195 121.286 13.2246 122.002 13.6348C122.725 14.0449 123.291 14.6081 123.701 15.3242C124.118 16.0339 124.326 16.8184 124.326 17.6777ZM116.885 16.9355H121.982C121.924 16.3236 121.663 15.8255 121.201 15.4414C120.739 15.0508 120.173 14.8555 119.502 14.8555C118.844 14.8555 118.288 15.041 117.832 15.4121C117.376 15.7767 117.061 16.2845 116.885 16.9355ZM131.777 13.2246V15.3438H128.398V23H126.182V13.2246H131.777ZM138.73 13.0195C140.046 13.0195 141.156 13.5111 142.061 14.4941C142.972 15.4772 143.428 16.6849 143.428 18.1172C143.428 19.5365 142.972 20.7376 142.061 21.7207C141.156 22.7038 140.046 23.1953 138.73 23.1953C138.079 23.1953 137.461 23.0553 136.875 22.7754C136.289 22.4889 135.866 22.1243 135.605 21.6816V26.4375H133.389V13.2246H135.605V14.5234C135.866 14.0938 136.289 13.7357 136.875 13.4492C137.467 13.1628 138.086 13.0195 138.73 13.0195ZM138.271 21.0762C139.111 21.0762 139.814 20.7962 140.381 20.2363C140.947 19.6699 141.23 18.9635 141.23 18.1172C141.23 17.2578 140.947 16.5482 140.381 15.9883C139.814 15.4219 139.111 15.1387 138.271 15.1387C137.725 15.1387 137.204 15.2786 136.709 15.5586C136.214 15.832 135.846 16.1803 135.605 16.6035V19.6016C135.846 20.0378 136.211 20.3926 136.699 20.666C137.194 20.9395 137.718 21.0762 138.271 21.0762ZM147.5 8.99609V20.8809H149.043V23H145.283V8.99609H147.5ZM157.793 13.2246H160.02V23H157.793V21.6816C157.533 22.1243 157.109 22.4889 156.523 22.7754C155.944 23.0553 155.329 23.1953 154.678 23.1953C153.363 23.1953 152.249 22.7038 151.338 21.7207C150.433 20.7376 149.98 19.5299 149.98 18.0977C149.98 16.6784 150.433 15.4772 151.338 14.4941C152.249 13.5111 153.363 13.0195 154.678 13.0195C155.322 13.0195 155.938 13.1628 156.523 13.4492C157.109 13.7357 157.533 14.1003 157.793 14.543V13.2246ZM155.137 21.0762C155.684 21.0762 156.201 20.9395 156.689 20.666C157.184 20.3926 157.552 20.0443 157.793 19.6211V16.623C157.552 16.1868 157.188 15.832 156.699 15.5586C156.211 15.2786 155.69 15.1387 155.137 15.1387C154.297 15.1387 153.594 15.4219 153.027 15.9883C152.461 16.5482 152.178 17.2513 152.178 18.0977C152.178 18.944 152.461 19.6536 153.027 20.2266C153.594 20.793 154.297 21.0762 155.137 21.0762ZM168.115 13.2246V15.3438H165.908V23H163.691V15.3438H161.494V13.2246H163.691V10.6172H165.908V13.2246H168.115ZM178.35 17.6777C178.35 18.0553 178.324 18.3776 178.271 18.6445H170.83C170.954 19.4388 171.27 20.0605 171.777 20.5098C172.292 20.959 172.943 21.1836 173.73 21.1836C174.284 21.1836 174.792 21.0729 175.254 20.8516C175.716 20.6237 176.061 20.321 176.289 19.9434L178.066 21.0762C177.702 21.7402 177.132 22.2611 176.357 22.6387C175.589 23.0098 174.701 23.1953 173.691 23.1953C172.76 23.1953 171.908 22.974 171.133 22.5312C170.358 22.082 169.743 21.4635 169.287 20.6758C168.838 19.888 168.613 19.0156 168.613 18.0586C168.613 17.1276 168.835 16.278 169.277 15.5098C169.727 14.735 170.335 14.1263 171.104 13.6836C171.878 13.2409 172.728 13.0195 173.652 13.0195C174.518 13.0195 175.309 13.2246 176.025 13.6348C176.748 14.0449 177.314 14.6081 177.725 15.3242C178.141 16.0339 178.35 16.8184 178.35 17.6777ZM170.908 16.9355H176.006C175.947 16.3236 175.687 15.8255 175.225 15.4414C174.762 15.0508 174.196 14.8555 173.525 14.8555C172.868 14.8555 172.311 15.041 171.855 15.4121C171.4 15.7767 171.084 16.2845 170.908 16.9355Z" fill="#353535"/>
<path d="M1.19531 19.6953L1.19531 14.7969L3.9375 14.7969L3.9375 20.1992C3.9375 20.8711 4.08984 21.4063 4.39453 21.8047C4.69922 22.2031 5.10547 22.4023 5.61328 22.4023C5.96484 22.4023 6.27734 22.3047 6.55078 22.1094C6.81641 21.9063 7.03516 21.6367 7.20703 21.3008C7.37891 20.957 7.53906 20.5664 7.6875 20.1289C7.82813 19.6836 7.97266 19.2188 8.12109 18.7344C8.26172 18.25 8.41797 17.7656 8.58984 17.2813C8.75391 16.7969 8.96484 16.3359 9.22266 15.8984C9.48047 15.4531 9.77734 15.0625 10.1133 14.7266C10.4492 14.3828 10.8789 14.1133 11.4023 13.918C11.9258 13.7148 12.5156 13.6133 13.1719 13.6133C13.8516 13.6133 14.4805 13.7344 15.0586 13.9766C15.6367 14.2188 16.1484 14.5742 16.5938 15.043C17.0313 15.5039 17.375 16.1016 17.625 16.8359C17.875 17.5625 18 18.3867 18 19.3086L18 24.8516L15.2695 24.8516L15.2695 19.1914C15.2695 18.3398 15.082 17.6758 14.707 17.1992C14.332 16.7148 13.8203 16.4727 13.1719 16.4727C12.7969 16.4727 12.4688 16.5742 12.1875 16.7773C11.9063 16.9727 11.6797 17.2383 11.5078 17.5742C11.3281 17.9102 11.168 18.2969 11.0273 18.7344C10.8789 19.1719 10.7383 19.6328 10.6055 20.1172C10.4727 20.6016 10.3281 21.0859 10.1719 21.5703C10.0078 22.0547 9.80469 22.5156 9.5625 22.9531C9.3125 23.3906 9.02734 23.7773 8.70703 24.1133C8.37891 24.4492 7.96484 24.7188 7.46484 24.9219C6.95703 25.1172 6.37891 25.2148 5.73047 25.2148C4.38672 25.2148 3.29688 24.707 2.46094 23.6914C1.61719 22.668 1.19531 21.3359 1.19531 19.6953Z" fill="#BEC4E2"/>
<path d="M1.19531 17.2891L1.19531 12.3906L3.9375 12.3906L3.9375 17.793C3.9375 18.4648 4.08984 19 4.39453 19.3984C4.69922 19.7969 5.10547 19.9961 5.61328 19.9961C5.96484 19.9961 6.27734 19.8984 6.55078 19.7031C6.81641 19.5 7.03516 19.2305 7.20703 18.8945C7.37891 18.5508 7.53906 18.1602 7.6875 17.7227C7.82813 17.2773 7.97266 16.8125 8.12109 16.3281C8.26172 15.8438 8.41797 15.3594 8.58984 14.875C8.75391 14.3906 8.96484 13.9297 9.22266 13.4922C9.48047 13.0469 9.77734 12.6563 10.1133 12.3203C10.4492 11.9766 10.8789 11.707 11.4023 11.5117C11.9258 11.3086 12.5156 11.207 13.1719 11.207C13.8516 11.207 14.4805 11.3281 15.0586 11.5703C15.6367 11.8125 16.1484 12.168 16.5938 12.6367C17.0313 13.0977 17.375 13.6953 17.625 14.4297C17.875 15.1563 18 15.9805 18 16.9023L18 22.4453L15.2695 22.4453L15.2695 16.7852C15.2695 15.9336 15.082 15.2695 14.707 14.793C14.332 14.3086 13.8203 14.0664 13.1719 14.0664C12.7969 14.0664 12.4688 14.168 12.1875 14.3711C11.9063 14.5664 11.6797 14.832 11.5078 15.168C11.3281 15.5039 11.168 15.8906 11.0273 16.3281C10.8789 16.7656 10.7383 17.2266 10.6055 17.7109C10.4727 18.1953 10.3281 18.6797 10.1719 19.1641C10.0078 19.6484 9.80469 20.1094 9.5625 20.5469C9.3125 20.9844 9.02734 21.3711 8.70703 21.707C8.37891 22.043 7.96484 22.3125 7.46484 22.5156C6.95703 22.7109 6.37891 22.8086 5.73047 22.8086C4.38672 22.8086 3.29688 22.3008 2.46094 21.2852C1.61719 20.2617 1.19531 18.9297 1.19531 17.2891Z" fill="#8192E4"/>
<path d="M1.19531 14.8828L1.19531 9.98438L3.9375 9.98438L3.9375 15.3867C3.9375 16.0586 4.08984 16.5938 4.39453 16.9922C4.69922 17.3906 5.10547 17.5898 5.61328 17.5898C5.96484 17.5898 6.27734 17.4922 6.55078 17.2969C6.81641 17.0938 7.03516 16.8242 7.20703 16.4883C7.37891 16.1445 7.53906 15.7539 7.6875 15.3164C7.82813 14.8711 7.97266 14.4063 8.12109 13.9219C8.26172 13.4375 8.41797 12.9531 8.58984 12.4688C8.75391 11.9844 8.96484 11.5234 9.22266 11.0859C9.48047 10.6406 9.77734 10.25 10.1133 9.91406C10.4492 9.57031 10.8789 9.30078 11.4023 9.10547C11.9258 8.90234 12.5156 8.80078 13.1719 8.80078C13.8516 8.80078 14.4805 8.92188 15.0586 9.16406C15.6367 9.40625 16.1484 9.76172 16.5938 10.2305C17.0313 10.6914 17.375 11.2891 17.625 12.0234C17.875 12.75 18 13.5742 18 14.4961L18 20.0391L15.2695 20.0391L15.2695 14.3789C15.2695 13.5273 15.082 12.8633 14.707 12.3867C14.332 11.9023 13.8203 11.6602 13.1719 11.6602C12.7969 11.6602 12.4688 11.7617 12.1875 11.9648C11.9063 12.1602 11.6797 12.4258 11.5078 12.7617C11.3281 13.0977 11.168 13.4844 11.0273 13.9219C10.8789 14.3594 10.7383 14.8203 10.6055 15.3047C10.4727 15.7891 10.3281 16.2734 10.1719 16.7578C10.0078 17.2422 9.80469 17.7031 9.5625 18.1406C9.3125 18.5781 9.02734 18.9648 8.70703 19.3008C8.37891 19.6367 7.96484 19.9063 7.46484 20.1094C6.95703 20.3047 6.37891 20.4023 5.73047 20.4023C4.38672 20.4023 3.29688 19.8945 2.46094 18.8789C1.61719 17.8555 1.19531 16.5234 1.19531 14.8828Z" fill="#1634CF"/>
</g>
<defs>
<clipPath id="clip0_301_8386">
<rect width="179" height="33" fill="white"/>
</clipPath>
</defs>
</svg>
