<svg width="1126" height="230" viewBox="0 0 1126 230" fill="none" xmlns="http://www.w3.org/2000/svg">
<path d="M518.789 181.019H504V219.92H509.333V204.193H518.789C525.551 204.193 530.609 199.192 530.609 192.578C530.609 185.965 525.551 181.019 518.789 181.019ZM518.789 199.08H509.333V186.132H518.789C522.472 186.132 525.331 188.911 525.331 192.578C525.331 196.246 522.472 199.08 518.789 199.08Z" fill="white"/>
<path d="M546.266 192.245C538.46 192.245 532.412 198.414 532.412 206.416C532.412 214.363 538.46 220.476 546.266 220.476C554.018 220.476 560.12 214.363 560.12 206.416C560.12 198.414 554.018 192.245 546.266 192.245ZM546.266 197.135C551.269 197.135 555.172 201.137 555.172 206.416C555.172 211.584 551.269 215.586 546.266 215.586C541.208 215.586 537.36 211.584 537.36 206.416C537.36 201.137 541.208 197.135 546.266 197.135Z" fill="white"/>
<path d="M571.749 219.92H575.762L582.799 200.47L589.781 219.92H593.85L603.635 192.801H598.193L591.815 212.196L584.889 192.801H580.655L573.838 212.196L567.406 192.801H562.018L571.749 219.92Z" fill="white"/>
<path d="M632.034 205.193C632.034 197.913 626.426 192.245 619.224 192.245C611.528 192.245 605.535 198.414 605.535 206.249C605.535 214.363 611.638 220.476 619.279 220.476C624.777 220.476 629.285 218.197 631.319 214.53L627.251 211.862C625.876 214.307 622.853 215.808 619.444 215.808C614.606 215.808 611.143 212.696 610.538 207.75H631.924C631.979 207.083 632.034 205.805 632.034 205.193ZM610.703 203.415C611.638 199.358 614.826 196.913 619.004 196.913C623.238 196.913 626.316 199.636 626.811 203.415H610.703Z" fill="white"/>
<path d="M649.77 192.245C647.186 192.245 644.218 194.023 642.733 196.746V192.801H637.62V219.92H642.733V201.859C644.328 198.803 647.241 197.024 649.44 197.024C650.43 197.024 651.584 197.191 652.464 197.524L652.739 192.69C651.969 192.467 650.98 192.245 649.77 192.245Z" fill="white"/>
<path d="M680.407 205.193C680.407 197.913 674.799 192.245 667.597 192.245C659.901 192.245 653.908 198.414 653.908 206.249C653.908 214.363 660.01 220.476 667.652 220.476C673.15 220.476 677.658 218.197 679.692 214.53L675.624 211.862C674.249 214.307 671.226 215.808 667.817 215.808C662.979 215.808 659.516 212.696 658.911 207.75H680.297C680.352 207.083 680.407 205.805 680.407 205.193ZM659.076 203.415C660.01 199.358 663.199 196.913 667.377 196.913C671.611 196.913 674.689 199.636 675.184 203.415H659.076Z" fill="white"/>
<path d="M706.019 181.019V196.746C704.59 194.19 700.851 192.245 697.058 192.245C689.636 192.245 683.973 198.414 683.973 206.36C683.973 214.307 689.636 220.476 697.058 220.476C700.796 220.476 704.535 218.531 706.019 215.974V219.92H711.132V181.019H706.019ZM698.047 215.641C692.879 215.641 688.921 211.64 688.921 206.36C688.921 201.025 692.879 197.08 698.047 197.08C701.346 197.08 704.59 198.969 706.019 201.637V211.14C704.59 213.752 701.346 215.641 698.047 215.641Z" fill="white"/>
<path d="M744.897 192.245C741.158 192.245 737.365 194.19 735.936 196.746V181.019H730.823V219.92H735.936V215.974C737.42 218.531 741.158 220.476 744.897 220.476C752.319 220.476 757.981 214.307 757.981 206.36C757.981 198.414 752.319 192.245 744.897 192.245ZM743.907 215.641C740.609 215.641 737.365 213.752 735.936 211.14V201.637C737.365 198.969 740.609 197.08 743.907 197.08C749.075 197.08 753.033 201.025 753.033 206.36C753.033 211.64 749.075 215.641 743.907 215.641Z" fill="white"/>
<path d="M780.87 192.801L772.843 213.029L764.872 192.801H759.429L770.259 218.975L765.531 229.812H770.974L786.312 192.801H780.87Z" fill="white"/>
<path d="M823.148 192.745V196.413C821.719 193.968 818.145 192.189 814.572 192.189C807.315 192.189 801.652 198.414 801.652 206.305C801.652 214.252 807.315 220.476 814.572 220.476C818.145 220.476 821.719 218.698 823.148 216.252V219.92H829.251V192.745H823.148ZM815.836 214.585C811.218 214.585 807.7 211.029 807.7 206.305C807.7 201.581 811.218 198.08 815.836 198.08C818.915 198.08 821.829 199.803 823.148 202.192V210.528C821.829 212.862 818.86 214.585 815.836 214.585Z" fill="white"/>
<path d="M850.401 192.189C846.828 192.189 843.254 193.968 841.825 196.357V192.745H835.723V229.479H841.825V216.252C843.254 218.698 846.828 220.476 850.401 220.476C857.658 220.476 863.321 214.252 863.321 206.36C863.321 198.414 857.658 192.189 850.401 192.189ZM849.137 214.585C846.058 214.585 843.145 212.862 841.825 210.473V202.137C843.145 199.803 846.113 198.08 849.137 198.08C853.755 198.08 857.274 201.581 857.274 206.36C857.274 211.084 853.755 214.585 849.137 214.585Z" fill="white"/>
<path d="M883.097 192.189C879.524 192.189 875.95 193.968 874.521 196.357V192.745H868.419V229.479H874.521V216.252C875.95 218.698 879.524 220.476 883.097 220.476C890.354 220.476 896.017 214.252 896.017 206.36C896.017 198.414 890.354 192.189 883.097 192.189ZM881.833 214.585C878.754 214.585 875.84 212.862 874.521 210.473V202.137C875.84 199.803 878.809 198.08 881.833 198.08C886.451 198.08 889.969 201.581 889.969 206.36C889.969 211.084 886.451 214.585 881.833 214.585Z" fill="white"/>
<path d="M915.976 214.196C915.427 214.363 914.547 214.53 913.887 214.53C911.193 214.53 908.994 212.64 908.994 209.472V198.636H916.031V192.745H908.994V185.465H902.892V192.745H897.724V198.636H902.892V209.75C902.892 216.475 907.07 220.309 913.008 220.309C914.162 220.309 915.427 220.087 916.306 219.642L915.976 214.196Z" fill="white"/>
<path d="M945.144 205.138C945.144 197.858 939.481 192.189 932.224 192.189C924.472 192.189 918.37 198.302 918.37 206.194C918.37 214.307 924.582 220.476 932.334 220.476C937.887 220.476 942.395 218.253 944.374 214.585L939.481 211.418C938.217 213.529 935.468 214.863 932.444 214.863C928.266 214.863 925.407 212.418 924.582 208.361H944.924C945.089 207.583 945.144 205.86 945.144 205.138ZM924.692 203.082C925.627 199.692 928.266 197.802 931.894 197.802C935.578 197.802 938.217 200.025 938.711 203.082H924.692Z" fill="white"/>
<path d="M964.588 192.189C961.179 192.189 957.991 193.801 956.342 196.413V192.745H950.239V219.92H956.342V202.137C957.716 199.803 960.355 198.358 963.104 198.358C966.897 198.358 969.426 201.025 969.426 205.416V219.92H975.583V204.415C975.583 196.913 971.295 192.189 964.588 192.189Z" fill="white"/>
<path d="M991.973 220.531C998.131 220.531 1002.47 216.975 1002.47 212.084C1002.47 202.026 987.41 204.86 987.41 200.247C987.41 198.469 988.895 197.358 991.149 197.358C993.403 197.358 997.251 198.358 999.395 200.247L1001.81 195.468C999.395 193.245 995.492 192.189 991.753 192.189C985.596 192.189 981.308 195.69 981.308 200.748C981.308 210.806 996.261 207.305 996.261 212.307C996.261 214.029 994.502 215.308 991.808 215.308C988.784 215.308 984.826 213.918 982.737 211.918L980.318 216.586C982.957 218.975 987.63 220.531 991.973 220.531Z" fill="white"/>
<path d="M1010.55 180.13C1008.41 180.13 1006.65 181.964 1006.65 184.076C1006.65 186.299 1008.41 188.077 1010.55 188.077C1012.69 188.077 1014.51 186.299 1014.51 184.076C1014.51 181.964 1012.69 180.13 1010.55 180.13ZM1007.47 192.745V219.92H1013.57V192.745H1007.47Z" fill="white"/>
<path d="M1032.57 192.189C1024.71 192.189 1018.66 198.302 1018.66 206.36C1018.66 214.418 1024.71 220.476 1032.57 220.476C1040.43 220.476 1046.53 214.418 1046.53 206.36C1046.53 198.302 1040.43 192.189 1032.57 192.189ZM1032.57 198.136C1037.02 198.136 1040.48 201.692 1040.48 206.36C1040.48 210.973 1037.02 214.53 1032.57 214.53C1028.12 214.53 1024.71 210.973 1024.71 206.36C1024.71 201.692 1028.12 198.136 1032.57 198.136Z" fill="white"/>
<path d="M1066 192.189C1062.6 192.189 1059.41 193.801 1057.76 196.413V192.745H1051.66V219.92H1057.76V202.137C1059.13 199.803 1061.77 198.358 1064.52 198.358C1068.31 198.358 1070.84 201.025 1070.84 205.416V219.92H1077V204.415C1077 196.913 1072.71 192.189 1066 192.189Z" fill="white"/>
<path d="M226.672 58.1549H250.907V71.6981H224.177C217.525 71.6981 213.248 75.0245 213.248 80.0141C213.248 96.5273 256.729 86.9045 256.729 117.436C256.729 130.742 247.225 141.315 228.573 141.315H201.13V127.772H229.167C237.602 127.772 242.591 123.851 242.591 117.436C242.591 99.9725 199.348 110.546 199.348 80.6081C199.348 67.3025 210.397 58.1549 226.672 58.1549ZM312.293 83.2217H325.479V141.315H312.293V133.474C309.204 138.701 301.482 142.503 293.76 142.503C278.078 142.503 265.842 129.197 265.842 112.209C265.842 95.3393 278.078 82.0337 293.76 82.0337C301.482 82.0337 309.204 85.8353 312.293 91.0625V83.2217ZM296.492 129.91C303.026 129.91 309.441 126.227 312.293 121.238V103.418C309.441 98.3093 303.145 94.6265 296.492 94.6265C286.513 94.6265 278.91 102.111 278.91 112.209C278.91 122.307 286.513 129.91 296.492 129.91ZM382.946 83.2217H396.133V141.315H382.946V133.474C379.857 138.701 372.135 142.503 364.413 142.503C348.732 142.503 336.495 129.197 336.495 112.209C336.495 95.3393 348.732 82.0337 364.413 82.0337C372.135 82.0337 379.857 85.8353 382.946 91.0625V83.2217ZM367.146 129.91C373.68 129.91 380.095 126.227 382.946 121.238V103.418C380.095 98.3093 373.799 94.6265 367.146 94.6265C357.167 94.6265 349.563 102.111 349.563 112.209C349.563 122.307 357.167 129.91 367.146 129.91ZM434.34 58.1549H458.575V71.6981H431.845C425.192 71.6981 420.916 75.0245 420.916 80.0141C420.916 96.5273 464.396 86.9045 464.396 117.436C464.396 130.742 454.892 141.315 436.241 141.315H408.798V127.772H436.835C445.27 127.772 450.259 123.851 450.259 117.436C450.259 99.9725 407.016 110.546 407.016 80.6081C407.016 67.3025 418.064 58.1549 434.34 58.1549ZM503.757 141.315V58.1549H533.933C547.832 58.1549 558.881 67.8965 558.881 79.6577C558.881 87.8549 553.416 95.4581 546.288 97.3589C555.792 98.9033 562.92 107.338 562.92 117.911C562.92 131.098 551.515 141.315 537.615 141.315H503.757ZM517.657 92.6069H533.576C539.873 92.6069 544.862 87.8549 544.862 81.7961C544.862 75.9749 539.754 71.4605 533.576 71.4605H517.657V92.6069ZM517.657 128.009H536.665C543.555 128.009 548.783 122.663 548.783 116.011C548.783 109.239 543.437 103.893 536.784 103.893H517.657V128.009ZM600.903 82.0337C617.892 82.0337 631.078 95.1017 631.078 112.328C631.078 129.554 617.892 142.503 600.903 142.503C583.915 142.503 570.847 129.554 570.847 112.328C570.847 95.1017 583.915 82.0337 600.903 82.0337ZM600.903 94.7453C591.28 94.7453 583.915 102.349 583.915 112.328C583.915 122.188 591.28 129.791 600.903 129.791C610.526 129.791 618.01 122.188 618.01 112.328C618.01 102.349 610.526 94.7453 600.903 94.7453ZM648.803 56.2541C653.436 56.2541 657.356 60.1745 657.356 64.6889C657.356 69.4409 653.436 73.2425 648.803 73.2425C644.17 73.2425 640.368 69.4409 640.368 64.6889C640.368 60.1745 644.17 56.2541 648.803 56.2541ZM642.15 83.2217H655.337V141.315H642.15V83.2217ZM683.181 58.1549V128.722H692.328V141.315H669.994V58.1549H683.181ZM755.856 109.714C755.856 111.259 755.737 114.941 755.38 116.605H711.424C713.206 125.277 719.384 130.504 728.413 130.504C734.947 130.504 740.887 127.653 743.619 123.139L754.192 129.91C749.916 137.751 740.174 142.503 728.175 142.503C711.424 142.503 698 129.316 698 111.971C698 95.1017 711.187 82.0337 727.938 82.0337C743.619 82.0337 755.856 94.1513 755.856 109.714ZM711.662 105.319H741.956C740.887 98.7845 735.184 94.0325 727.225 94.0325C719.384 94.0325 713.682 98.0717 711.662 105.319ZM800.131 83.2217V95.8145H780.054V141.315H766.867V83.2217H800.131ZM841.396 82.0337C857.078 82.0337 869.314 95.3393 869.314 112.328C869.314 129.197 857.078 142.503 841.396 142.503C833.674 142.503 825.952 138.701 822.863 133.474V161.749H809.677V83.2217H822.863V90.9437C825.952 85.8353 833.674 82.0337 841.396 82.0337ZM838.664 129.91C848.643 129.91 856.246 122.426 856.246 112.328C856.246 102.111 848.643 94.6265 838.664 94.6265C832.13 94.6265 825.715 98.3093 822.863 103.299V121.119C825.715 126.227 832.011 129.91 838.664 129.91ZM893.517 58.1549V128.722H902.665V141.315H880.33V58.1549H893.517ZM954.787 83.2217H967.974V141.315H954.787V133.474C951.698 138.701 943.976 142.503 936.254 142.503C920.573 142.503 908.336 129.197 908.336 112.209C908.336 95.3393 920.573 82.0337 936.254 82.0337C943.976 82.0337 951.698 85.8353 954.787 91.0625V83.2217ZM938.987 129.91C945.521 129.91 951.936 126.227 954.787 121.238V103.418C951.936 98.3093 945.639 94.6265 938.987 94.6265C929.007 94.6265 921.404 102.111 921.404 112.209C921.404 122.307 929.007 129.91 938.987 129.91ZM1016.06 83.2217V95.8145H1002.99V141.315H989.801V95.8145H976.733V83.2217H989.801V67.7777H1002.99V83.2217H1016.06ZM1076.87 109.714C1076.87 111.259 1076.75 114.941 1076.4 116.605H1032.44C1034.22 125.277 1040.4 130.504 1049.43 130.504C1055.96 130.504 1061.9 127.653 1064.63 123.139L1075.21 129.91C1070.93 137.751 1061.19 142.503 1049.19 142.503C1032.44 142.503 1019.02 129.316 1019.02 111.971C1019.02 95.1017 1032.2 82.0337 1048.95 82.0337C1064.63 82.0337 1076.87 94.1513 1076.87 109.714ZM1032.68 105.319H1062.97C1061.9 98.7845 1056.2 94.0325 1048.24 94.0325C1040.4 94.0325 1034.7 98.0717 1032.68 105.319Z" fill="white"/>
<g clip-path="url(#clip0_4326_29730)">
<path d="M85.4412 160.917L69.1114 144.553L121.894 91.8902C123.427 90.3831 123.641 88.6704 123.641 87.7799C123.641 86.8893 123.41 85.1767 121.928 83.7296L120.884 82.7106C119.137 81.0065 116.474 80.6212 114.324 81.7258L67.0563 112.707L66.7566 112.878C55.5048 119.326 41.2473 117.417 32.0763 108.254C20.9529 97.1307 20.8673 78.9428 31.8879 67.7167L31.9564 67.6482L84.405 15.0626L100.778 31.3923L48.3546 83.9437C46.2053 86.1615 46.231 89.7237 48.4146 91.9158C50.1614 93.6627 52.8502 94.0737 55.0252 92.952L102.293 61.9709L102.593 61.7996C113.691 55.4459 127.837 57.2355 136.999 66.1582L138.044 67.1772C143.636 72.6233 146.727 79.919 146.753 87.7285C146.778 95.5294 143.73 102.851 138.172 108.323L85.4412 160.934V160.917Z" fill="white"/>
<path d="M168.649 122.066C168.649 110.874 168.649 85.2708 168.649 85.2708V83.1214L167.116 81.6143L145.829 60.652L143.816 58.6654V58.6054L142.275 57.0984L87.7626 3.5451L84.149 0L80.5525 3.55366L1.52422 81.6143L0 83.1214V129.345L1.52422 130.852L55.7111 184.396L57.732 186.392V186.443L59.2648 187.95L80.5525 208.912L84.1575 212.458L87.7626 208.912L167.108 130.852L168.666 129.319V122.049H168.64L168.649 122.066ZM84.1661 205.265L62.8784 184.302L59.3333 180.757L5.13782 127.204V85.2708L84.1661 7.21008L138.678 60.7548L142.224 64.2999L163.511 85.2622V127.195L84.1661 205.256V205.265Z" fill="white"/>
</g>
<defs>
<clipPath id="clip0_4326_29730">
<rect width="168.666" height="212.466" fill="white"/>
</clipPath>
</defs>
</svg>
