<svg viewBox="0 0 670 171" fill="none" xmlns="http://www.w3.org/2000/svg">
<g clip-path="url(#clip0_40_15)">
<path d="M92.0383 79.2858L75.1953 62.3184L82.993 54.4632L92.0383 63.5491L107.4 48.0742L66.6179 6.93882L4.88653 69.1263L45.6682 110.262L61.0556 94.7869L52.0103 85.7009L59.808 77.8457L76.6509 94.7869L53.4659 118.143L66.5919 131.314L128.297 69.1525H128.323L115.197 55.9818L92.0383 79.2858ZM38.9363 72.5041L33.348 66.8483L64.3046 35.6629L69.9189 41.2663L38.9363 72.5041ZM133.21 103.14L66.5919 170.224L48.5794 152.13V146.239L45.6682 149.171L0 103.14V67.084L66.5919 0L112.286 46.058V51.8971L115.171 48.9907L133.184 67.084V103.14H133.21Z" fill="black"/>
<path d="M216.281 61.3229V113.063H206.482V105.548C203.649 110.418 196.475 114.137 189.327 114.137C175.109 114.137 164.271 102.38 164.271 87.2191C164.271 72.0585 175.109 60.3018 189.327 60.3018C196.579 60.3018 203.753 64.0199 206.482 68.8902V61.3753H216.281V61.3229ZM206.482 96.305V78.1856C203.753 73.1058 197.54 69.4924 191.224 69.4924C181.321 69.4924 173.758 77.0073 173.758 87.1929C173.758 97.3786 181.321 104.893 191.224 104.893C197.54 104.893 203.753 101.28 206.482 96.305Z" fill="black"/>
<path d="M279.624 87.1931C279.624 102.354 268.785 114.11 254.567 114.11C247.419 114.11 240.142 110.392 237.412 105.522V131.916H227.639V61.3231H237.412V68.8379C240.246 63.9677 247.419 60.2495 254.567 60.2495C268.785 60.2495 279.624 72.0062 279.624 87.1669V87.1931ZM270.163 87.1931C270.163 77.1121 262.573 69.4925 252.696 69.4925C246.38 69.4925 240.168 73.106 237.438 78.081V96.2004C240.168 101.28 246.38 104.894 252.696 104.894C262.599 104.894 270.163 97.3787 270.163 87.1931Z" fill="black"/>
<path d="M340.237 87.1931C340.237 102.354 329.399 114.11 315.181 114.11C308.033 114.11 300.755 110.392 298.026 105.522V131.916H288.253V61.3231H298.026V68.8379C300.859 63.9677 308.033 60.2495 315.181 60.2495C329.399 60.2495 340.237 72.0062 340.237 87.1669V87.1931ZM330.776 87.1931C330.776 77.1121 323.213 69.4925 313.31 69.4925C306.993 69.4925 300.781 73.106 298.052 78.081V96.2004C300.781 101.28 306.993 104.894 313.31 104.894C323.213 104.894 330.776 97.3787 330.776 87.1931Z" fill="black"/>
<path d="M375.899 112.644C374.417 113.273 372.312 113.692 370.31 113.692C359.472 113.692 351.778 106.7 351.778 94.3938V70.6448H341.771V61.3232H351.778V47.3408H361.447V61.3232H375.327V70.6448H361.447V93.9749C361.447 100.652 365.866 104.58 371.558 104.58C372.728 104.58 374.287 104.37 375.353 104.056L375.873 112.644H375.899Z" fill="black"/>
<path d="M428.403 89.8379H387.465C388.635 99.2642 395.263 105.208 404.516 105.208C411.04 105.208 416.836 102.354 419.462 97.6931L427.259 102.773C423.36 109.764 414.731 114.111 404.204 114.111C389.571 114.111 377.9 102.459 377.9 86.9838C377.9 71.5089 389.363 60.2759 404.1 60.2759C417.876 60.2759 428.611 71.09 428.611 84.9676C428.611 86.1459 428.507 88.581 428.403 89.8379ZM418.63 81.5636C417.694 74.363 411.794 69.1523 403.684 69.1523C395.575 69.1523 389.571 73.8131 387.803 81.5636H418.63Z" fill="black"/>
<path d="M484.806 83.4749V113.037H475.137V84.8365C475.137 75.7244 469.782 69.8853 461.569 69.8853C455.669 69.8853 449.898 73.0536 447.039 78.1595V113.037H437.266V61.3231H447.039V68.8379C450.184 63.6535 456.838 60.2495 463.778 60.2495C476.618 60.2495 484.832 69.3616 484.832 83.4749H484.806Z" fill="black"/>
<path d="M492.812 106.7L496.814 99.3948C500.817 103.322 508.173 105.967 514.073 105.967C519.973 105.967 524.08 102.903 524.08 98.9758C524.08 87.4286 494.397 95.1529 494.397 76.0908C494.397 66.6645 502.299 60.3018 513.865 60.3018C520.805 60.3018 528.083 62.5274 532.502 66.874L528.291 74.2841C524.496 70.566 517.556 68.5498 512.929 68.5498C507.575 68.5498 504.092 71.1944 504.092 75.2268C504.092 85.7266 533.879 79.0497 533.879 98.6616C533.879 107.564 525.874 114.137 514.203 114.137C506.197 114.137 497.776 111.178 492.838 106.726L492.812 106.7Z" fill="black"/>
<path d="M553.841 44.6963C553.841 48.3097 550.8 51.2685 547.317 51.2685C543.834 51.2685 540.793 48.3097 540.793 44.6963C540.793 41.0828 543.73 38.124 547.317 38.124C550.904 38.124 553.841 41.1876 553.841 44.6963ZM552.152 61.3494V113.089H542.378V61.3232H552.152V61.3494Z" fill="black"/>
<path d="M613.805 87.298C613.805 102.459 602.135 114.111 587.293 114.111C572.451 114.111 560.781 102.459 560.781 87.298C560.781 72.1373 572.348 60.2759 587.293 60.2759C602.239 60.2759 613.805 72.0326 613.805 87.298ZM570.242 87.298C570.242 97.1694 577.598 104.789 587.293 104.789C596.988 104.789 604.344 97.1694 604.344 87.298C604.344 77.4265 596.884 69.5975 587.293 69.5975C577.702 69.5975 570.242 77.2171 570.242 87.298Z" fill="black"/>
<path d="M670 83.4749V113.037H660.331V84.8365C660.331 75.7244 654.977 69.8853 646.763 69.8853C640.863 69.8853 635.093 73.0536 632.234 78.1595V113.037H622.46V61.3231H632.234V68.8379C635.379 63.6535 642.007 60.2495 648.972 60.2495C661.813 60.2495 670.026 69.3616 670.026 83.4749H670Z" fill="black"/>
</g>
<defs>
<clipPath id="clip0_40_15">
<rect width="670" height="170.224" fill="white"/>
</clipPath>
</defs>
</svg>
