<svg viewBox="0 0 134 171" fill="none" xmlns="http://www.w3.org/2000/svg">
<g clip-path="url(#clip0_signet)">
<path d="M92.0383 79.2858L75.1953 62.3184L82.993 54.4632L92.0383 63.5491L107.4 48.0742L66.6179 6.93882L4.88653 69.1263L45.6682 110.262L61.0556 94.7869L52.0103 85.7009L59.808 77.8457L76.6509 94.7869L53.4659 118.143L66.5919 131.314L128.297 69.1525H128.323L115.197 55.9818L92.0383 79.2858ZM38.9363 72.5041L33.348 66.8483L64.3046 35.6629L69.9189 41.2663L38.9363 72.5041ZM133.21 103.14L66.5919 170.224L48.5794 152.13V146.239L45.6682 149.171L0 103.14V67.084L66.5919 0L112.286 46.058V51.8971L115.171 48.9907L133.184 67.084V103.14H133.21Z" fill="currentColor"/>
</g>
<defs>
<clipPath id="clip0_signet">
<rect width="134" height="170.224" fill="white"/>
</clipPath>
</defs>
</svg>
