<?xml version="1.0" encoding="utf-8"?>
<!-- Generator: Adobe Illustrator 21.1.0, SVG Export Plug-In . SVG Version: 6.00 Build 0)  -->
<svg version="1.1" id="Warstwa_1" xmlns="http://www.w3.org/2000/svg" xmlns:xlink="http://www.w3.org/1999/xlink" x="0px" y="0px"
	 viewBox="0 0 106 134" enable-background="new 0 0 106 134" xml:space="preserve">
<g>
	<path fill="#50A706" d="M94.7,42.4L88.1,49L88,48.9V35.7l-35-35l-53,53v27.2l35,35l6.7-6.7v13.4L53,133.8l53-53V53.6L94.7,42.4z
		 M41.7,95.4L41.7,95.4v1.5V95.4z"/>
	<polygon fill="#78CC00" points="106,53.1 106,80.4 53,133.4 53,106.1 	"/>
	<path fill="#83FF00" d="M48.3,88.4L61.7,75L47.2,60.5l-6.7,6.7l6.7,6.7l1.1,1.1L35.1,88.2L0,53.1l53-53l35,35L74.8,48.4l-7.8-7.8
		l-6.7,6.7l14.4,14.5l13.3-13.3l6.6-6.6L106,53.1l-53,53L41.8,94.9L48.3,88.4z M29.3,56l26.6-26.6L51,24.6L24.5,51.2L29.3,56z"/>
	<polygon fill="#78CC00" points="88.1,48.5 74.8,61.8 74.8,48.4 88,35.2 88,48.4 	"/>
	<polygon fill="#569900" points="74.8,48.4 74.8,61.8 60.4,47.3 67.1,40.7 	"/>
	<polygon fill="#569900" points="61.7,75 48.3,88.4 48.3,75 47.2,73.9 47.2,60.5 	"/>
	<polygon fill="#569900" points="55.8,29.4 29.3,56 24.5,51.2 51,24.6 	"/>
	<polygon fill="#569900" points="53,106.1 53,133.4 41.7,122.1 41.7,96.4 41.8,94.9 	"/>
	<polygon fill="#78CC00" points="48.3,75 48.3,88.4 41.7,94.9 41.7,108.7 35.1,115.4 35.1,88.2 	"/>
	<polygon fill="#78CC00" points="47.2,60.5 47.2,73.9 40.5,67.2 	"/>
	<polygon fill="#569900" points="35.1,88.2 35.1,115.4 0,80.4 0,53.1 	"/>
</g>
</svg>
