<svg width="1126" height="226" viewBox="0 0 1126 226" fill="none" xmlns="http://www.w3.org/2000/svg">
<path d="M168.649 133.066C168.649 121.874 168.649 96.2708 168.649 96.2708V94.1214L167.116 92.6143L145.829 71.652L143.816 69.6654V69.6054L142.275 68.0984L87.7626 14.5451L84.149 11L80.5525 14.5537L1.52422 92.6143L0 94.1214V140.345L1.52422 141.852L55.7111 195.396L57.732 197.392V197.443L59.2648 198.95L80.5525 219.912L84.1575 223.458L87.7626 219.912L167.108 141.852L168.666 140.319V133.049H168.641L168.649 133.066Z" fill="black"/>
<path d="M85.4411 171.917L69.1114 155.553L121.894 102.89C123.427 101.383 123.641 99.6704 123.641 98.7799C123.641 97.8893 123.41 96.1767 121.928 94.7296L120.884 93.7106C119.137 92.0065 116.474 91.6212 114.324 92.7258L67.0563 123.707L66.7566 123.878C55.5047 130.326 41.2473 128.417 32.0763 119.254C20.9529 108.131 20.8672 89.9428 31.8879 78.7167L31.9564 78.6482L84.405 26.0626L100.778 42.3923L48.3546 94.9436C46.2053 97.1615 46.231 100.724 48.4145 102.916C50.1614 104.663 52.8502 105.074 55.0252 103.952L102.293 72.9709L102.593 72.7996C113.691 66.4458 127.837 68.2355 136.999 77.1582L138.044 78.1772C143.636 83.6233 146.727 90.919 146.752 98.7285C146.778 106.529 143.73 113.851 138.172 119.323L85.4411 171.934V171.917Z" fill="white"/>
<path d="M226.672 68.84H250.907V82.3832H224.177C217.525 82.3832 213.248 85.7096 213.248 90.6992C213.248 107.212 256.729 97.5896 256.729 128.121C256.729 141.427 247.225 152 228.573 152H201.13V138.457H229.167C237.602 138.457 242.591 134.536 242.591 128.121C242.591 110.658 199.348 121.231 199.348 91.2932C199.348 77.9876 210.397 68.84 226.672 68.84ZM312.293 93.9068H325.479V152H312.293V144.159C309.204 149.386 301.482 153.188 293.76 153.188C278.078 153.188 265.842 139.882 265.842 122.894C265.842 106.024 278.078 92.7188 293.76 92.7188C301.482 92.7188 309.204 96.5204 312.293 101.748V93.9068ZM296.492 140.595C303.026 140.595 309.441 136.912 312.293 131.923V114.103C309.441 108.994 303.145 105.312 296.492 105.312C286.513 105.312 278.91 112.796 278.91 122.894C278.91 132.992 286.513 140.595 296.492 140.595ZM382.946 93.9068H396.133V152H382.946V144.159C379.857 149.386 372.135 153.188 364.413 153.188C348.732 153.188 336.495 139.882 336.495 122.894C336.495 106.024 348.732 92.7188 364.413 92.7188C372.135 92.7188 379.857 96.5204 382.946 101.748V93.9068ZM367.146 140.595C373.68 140.595 380.095 136.912 382.946 131.923V114.103C380.095 108.994 373.799 105.312 367.146 105.312C357.167 105.312 349.563 112.796 349.563 122.894C349.563 132.992 357.167 140.595 367.146 140.595ZM434.34 68.84H458.575V82.3832H431.845C425.192 82.3832 420.916 85.7096 420.916 90.6992C420.916 107.212 464.396 97.5896 464.396 128.121C464.396 141.427 454.892 152 436.241 152H408.798V138.457H436.835C445.27 138.457 450.259 134.536 450.259 128.121C450.259 110.658 407.016 121.231 407.016 91.2932C407.016 77.9876 418.064 68.84 434.34 68.84ZM503.757 152V68.84H533.933C547.832 68.84 558.881 78.5816 558.881 90.3428C558.881 98.54 553.416 106.143 546.288 108.044C555.792 109.588 562.92 118.023 562.92 128.596C562.92 141.783 551.515 152 537.615 152H503.757ZM517.657 103.292H533.576C539.873 103.292 544.862 98.54 544.862 92.4812C544.862 86.66 539.754 82.1456 533.576 82.1456H517.657V103.292ZM517.657 138.694H536.665C543.555 138.694 548.783 133.348 548.783 126.696C548.783 119.924 543.437 114.578 536.784 114.578H517.657V138.694ZM600.903 92.7188C617.892 92.7188 631.078 105.787 631.078 123.013C631.078 140.239 617.892 153.188 600.903 153.188C583.915 153.188 570.847 140.239 570.847 123.013C570.847 105.787 583.915 92.7188 600.903 92.7188ZM600.903 105.43C591.28 105.43 583.915 113.034 583.915 123.013C583.915 132.873 591.28 140.476 600.903 140.476C610.526 140.476 618.01 132.873 618.01 123.013C618.01 113.034 610.526 105.43 600.903 105.43ZM648.803 66.9392C653.436 66.9392 657.356 70.8596 657.356 75.374C657.356 80.126 653.436 83.9276 648.803 83.9276C644.17 83.9276 640.368 80.126 640.368 75.374C640.368 70.8596 644.17 66.9392 648.803 66.9392ZM642.15 93.9068H655.337V152H642.15V93.9068ZM683.181 68.84V139.407H692.328V152H669.994V68.84H683.181ZM755.856 120.399C755.856 121.944 755.737 125.626 755.38 127.29H711.424C713.206 135.962 719.384 141.189 728.413 141.189C734.947 141.189 740.887 138.338 743.619 133.824L754.192 140.595C749.916 148.436 740.174 153.188 728.175 153.188C711.424 153.188 698 140.001 698 122.656C698 105.787 711.187 92.7188 727.938 92.7188C743.619 92.7188 755.856 104.836 755.856 120.399ZM711.662 116.004H741.956C740.887 109.47 735.184 104.718 727.225 104.718C719.384 104.718 713.682 108.757 711.662 116.004ZM800.131 93.9068V106.5H780.054V152H766.867V93.9068H800.131ZM841.396 92.7188C857.078 92.7188 869.314 106.024 869.314 123.013C869.314 139.882 857.078 153.188 841.396 153.188C833.674 153.188 825.952 149.386 822.863 144.159V172.434H809.677V93.9068H822.863V101.629C825.952 96.5204 833.674 92.7188 841.396 92.7188ZM838.664 140.595C848.643 140.595 856.246 133.111 856.246 123.013C856.246 112.796 848.643 105.312 838.664 105.312C832.13 105.312 825.715 108.994 822.863 113.984V131.804C825.715 136.912 832.011 140.595 838.664 140.595ZM893.517 68.84V139.407H902.665V152H880.33V68.84H893.517ZM954.787 93.9068H967.974V152H954.787V144.159C951.698 149.386 943.976 153.188 936.254 153.188C920.573 153.188 908.336 139.882 908.336 122.894C908.336 106.024 920.573 92.7188 936.254 92.7188C943.976 92.7188 951.698 96.5204 954.787 101.748V93.9068ZM938.987 140.595C945.521 140.595 951.936 136.912 954.787 131.923V114.103C951.936 108.994 945.639 105.312 938.987 105.312C929.007 105.312 921.404 112.796 921.404 122.894C921.404 132.992 929.007 140.595 938.987 140.595ZM1016.06 93.9068V106.5H1002.99V152H989.801V106.5H976.733V93.9068H989.801V78.4628H1002.99V93.9068H1016.06ZM1076.87 120.399C1076.87 121.944 1076.75 125.626 1076.4 127.29H1032.44C1034.22 135.962 1040.4 141.189 1049.43 141.189C1055.96 141.189 1061.9 138.338 1064.63 133.824L1075.21 140.595C1070.93 148.436 1061.19 153.188 1049.19 153.188C1032.44 153.188 1019.02 140.001 1019.02 122.656C1019.02 105.787 1032.2 92.7188 1048.95 92.7188C1064.63 92.7188 1076.87 104.836 1076.87 120.399ZM1032.68 116.004H1062.97C1061.9 109.47 1056.2 104.718 1048.24 104.718C1040.4 104.718 1034.7 108.757 1032.68 116.004Z" fill="#111111"/>
</svg>
