<?xml version="1.0" standalone="no"?>
<!DOCTYPE svg PUBLIC "-//W3C//DTD SVG 20010904//EN"
 "http://www.w3.org/TR/2001/REC-SVG-20010904/DTD/svg10.dtd">
<svg version="1.0" xmlns="http://www.w3.org/2000/svg"
 width="704.000000pt" height="704.000000pt" viewBox="0 0 704.000000 704.000000"
 preserveAspectRatio="xMidYMid meet">
<metadata>
Created by potrace 1.14, written by Peter Selinger 2001-2017
</metadata>
<g transform="translate(0.000000,704.000000) scale(0.100000,-0.100000)"
fill="#000000" stroke="none">
<path d="M3252 6776 c-136 -135 -376 -372 -534 -528 -586 -579 -1402 -1386
-1690 -1670 l-298 -294 0 -763 0 -763 219 -217 c230 -226 1252 -1237 1661
-1641 657 -650 893 -881 901 -878 5 2 192 184 416 404 224 221 485 478 580
570 94 93 355 350 580 571 224 221 500 493 613 603 113 111 293 289 400 395
l196 192 -1 765 0 764 -147 145 c-80 79 -350 345 -600 591 -249 246 -546 538
-660 650 -113 112 -385 379 -604 593 -218 215 -480 472 -582 573 -102 100
-189 182 -194 182 -4 0 -119 -110 -256 -244z m520 -245 c139 -137 331 -325
426 -419 317 -310 951 -934 1202 -1182 137 -135 356 -351 488 -481 l239 -236
0 -694 0 -694 -38 -35 c-21 -19 -250 -244 -510 -500 -259 -256 -534 -526 -609
-600 -76 -74 -336 -331 -579 -570 -717 -706 -876 -860 -884 -860 -7 0 -178
167 -797 780 -709 701 -1488 1470 -1643 1623 l-167 165 0 692 0 693 252 249
c139 138 495 489 791 781 870 859 1456 1439 1506 1489 25 26 51 48 58 48 6 0
125 -112 265 -249z"/>
<path d="M2630 5642 c-487 -488 -899 -905 -916 -927 -35 -45 -105 -160 -105
-172 0 -4 -7 -18 -15 -31 -9 -13 -17 -31 -19 -40 -2 -9 -11 -36 -20 -60 -8
-24 -18 -59 -21 -79 -3 -20 -10 -47 -15 -60 -5 -14 -5 -23 1 -23 6 0 6 -9 0
-25 -9 -24 -6 -205 4 -257 3 -16 8 -38 10 -50 47 -245 234 -494 468 -622 63
-35 228 -101 228 -91 0 2 11 0 24 -5 14 -5 58 -12 98 -17 238 -24 440 26 648
162 41 26 138 90 215 140 77 51 205 135 285 187 80 52 210 137 290 190 132 86
360 235 500 326 30 20 57 39 60 42 3 3 17 11 32 19 15 8 36 21 46 30 18 16 46
34 91 57 14 7 49 12 82 10 58 -3 95 -22 151 -78 52 -52 72 -146 44 -212 -8
-20 -346 -364 -895 -911 -484 -484 -881 -884 -881 -889 0 -13 523 -537 532
-533 19 6 1791 1783 1829 1834 101 135 163 283 185 443 8 57 8 204 1 250 -16
92 -31 151 -51 208 -15 41 -82 176 -98 197 -103 134 -192 223 -293 292 -64 43
-205 113 -228 113 -8 0 -17 3 -21 7 -3 4 -14 8 -22 9 -9 2 -37 7 -63 13 -95
22 -262 30 -331 16 -14 -3 -41 -8 -60 -11 -49 -8 -194 -56 -198 -66 -2 -4 -10
-8 -18 -8 -8 0 -69 -35 -135 -77 -66 -43 -131 -85 -144 -93 -85 -54 -361 -235
-365 -240 -3 -3 -30 -21 -60 -40 -30 -19 -167 -108 -305 -199 -682 -448 -644
-425 -706 -428 -113 -4 -192 72 -192 182 0 28 7 65 17 84 10 18 409 426 887
905 478 479 869 874 869 877 0 5 -435 444 -513 517 l-23 21 -884 -887z"/>
</g>
</svg>
